<svg xmlns="http://www.w3.org/2000/svg" width="512" height="512" viewBox="-28 -184 1080 1080"><defs><linearGradient id="a" x1="512" x2="512" y1="-128" y2="880" gradientUnits="userSpaceOnUse"><stop offset="0%" stop-color="#ff7e00"/><stop offset="100%" stop-color="#ff003c"/></linearGradient></defs><g fill="none" stroke="url(#a)" stroke-linecap="round" stroke-width="120"><path d="M512 32v-150"/><path d="M257 137 151 31"/><path d="M767 137 873 31"/></g><g fill="none" stroke="url(#a)" stroke-linecap="round" stroke-linejoin="round" stroke-width="120"><path d="M362 820V674a40 40 0 0 0-17.65-33.18 300 300 0 1 1 335.3 0A40 40 0 0 0 662 674v146"/><path d="M212 820h600"/></g><path fill="url(#a)" d="M452 820V516.9a40 40 0 0 0-15-31.22 120 120 0 1 1 150 0 40 40 0 0 0-15 31.22V820Z"/></svg>