<svg xmlns="http://www.w3.org/2000/svg" fill="none" viewBox="0 0 800 320"><path fill="#f5f5f7" d="M0 0h800v320H0z"/><rect width="720" height="140" x="40" y="16" fill="#fff" rx="12"/><rect width="300" height="20" x="80" y="40" fill="#f2f2f7" rx="5"/><rect width="400" height="12" x="80" y="76" fill="#e5e5ea" rx="3"/><rect width="200" height="12" x="80" y="96" fill="#e5e5ea" rx="3"/><rect width="100" height="24" x="80" y="120" fill="#0071e3" rx="6"/><rect width="224" height="124" x="40" y="180" fill="#fff" rx="12"/><rect width="120" height="12" x="60" y="240" fill="#f2f2f7" rx="3"/><rect width="180" height="8" x="60" y="264" fill="#e5e5ea" rx="2"/><rect width="224" height="124" x="288" y="180" fill="#fff" rx="12"/><rect width="120" height="12" x="308" y="240" fill="#f2f2f7" rx="3"/><rect width="180" height="8" x="308" y="264" fill="#e5e5ea" rx="2"/><rect width="224" height="124" x="536" y="180" fill="#fff" rx="12"/><rect width="120" height="12" x="556" y="240" fill="#f2f2f7" rx="3"/><rect width="180" height="8" x="556" y="264" fill="#e5e5ea" rx="2"/></svg>