<svg xmlns="http://www.w3.org/2000/svg" fill="none" viewBox="0 0 320 300"><path fill="#f5f5f7" d="M0 0h320v300H0z"/><rect width="288" height="120" x="16" y="16" fill="#fff" rx="12"/><circle cx="44" cy="44" r="14" fill="#f2f2f7"/><rect width="120" height="10" x="70" y="34" fill="#aeaeb2" rx="3"/><rect width="80" height="6" x="70" y="48" fill="#e5e5ea" rx="2"/><rect width="256" height="30" x="32" y="70" fill="#e5e5ea" rx="6"/><rect width="80" height="18" x="32" y="108" fill="#0071e3" rx="4"/><rect width="288" height="132" x="16" y="152" fill="#fff" rx="12"/><circle cx="44" cy="180" r="14" fill="#f2f2f7"/><rect width="120" height="10" x="70" y="170" fill="#aeaeb2" rx="3"/><rect width="80" height="6" x="70" y="184" fill="#e5e5ea" rx="2"/><rect width="256" height="36" x="32" y="206" fill="#e5e5ea" rx="6"/><rect width="80" height="18" x="32" y="250" fill="#0071e3" rx="4"/></svg>