<svg xmlns="http://www.w3.org/2000/svg" fill="currentColor" viewBox="57 11 910 910"><path d="M228.132 116.927c-13.33-13.33-34.95-13.33-48.26 0-13.34 13.33-13.34 34.94 0 48.27l48.26 48.26c13.33 13.33 34.93 13.33 48.27 0 13.33-13.33 13.33-34.93 0-48.26zm567.729 0-48.27 48.27c-13.33 13.33-13.33 34.94 0 48.26 13.32 13.33 34.93 13.33 48.27 0l48.26-48.26c13.34-13.34 13.34-34.94 0-48.27-13.33-13.33-34.93-13.33-48.26 0M159.6 346.66H91.34c-18.85 0-34.14 15.28-34.14 34.13s15.28 34.14 34.14 34.14h68.26c18.85 0 34.14-15.28 34.14-34.14 0-18.85-15.28-34.13-34.14-34.13m704.8 0h68.26c18.85 0 34.14 15.28 34.14 34.13s-15.28 34.14-34.14 34.14H864.4c-18.85 0-34.14-15.28-34.14-34.14 0-18.85 15.28-34.13 34.14-34.13M477.86 11.13v68.26c0 18.85 15.28 34.13 34.14 34.13 18.84 0 34.14-15.28 34.14-34.13V11.13C546.14-7.72 530.86-23 512-23c-18.84 0-34.14 15.28-34.14 34.13M262 432c0 138.07 111.93 250 250 250s250-111.93 250-250-111.93-250-250-250-250 111.93-250 250m90 0c0-88.37 71.63-160 160-160s160 71.63 160 160-71.63 160-160 160-160-71.63-160-160m40 373c0 13.8 11.2 25 25 25h190c13.8 0 25-11.2 25-25s-11.2-25-25-25H417c-13.8 0-25 11.2-25 25m30 55c0 11.05 8.95 20 20 20h140c11.05 0 20-8.95 20-20s-8.95-20-20-20H442c-11.05 0-20 8.95-20 20m30 45c0 8.28 6.72 15 15 15h90c8.28 0 15-6.72 15-15s-6.72-15-15-15h-90c-8.28 0-15 6.72-15 15"/></svg>